<?xml version="1.0" encoding="UTF-8" standalone="no"?>
<!-- Created with Inkscape (http://www.inkscape.org/) -->

<svg
   width="149.06046mm"
   height="184.97122mm"
   viewBox="0 0 149.06046 184.97122"
   version="1.1"
   id="svg5"
   xml:space="preserve"
   inkscape:version="1.2.2 (b0a8486541, 2022-12-01)"
   sodipodi:docname="drawing BLUE LOGO.svg"
   inkscape:export-filename="pypdf-table-extracion-logo.png"
   inkscape:export-xdpi="96"
   inkscape:export-ydpi="96"
   xmlns:inkscape="http://www.inkscape.org/namespaces/inkscape"
   xmlns:sodipodi="http://sodipodi.sourceforge.net/DTD/sodipodi-0.dtd"
   xmlns="http://www.w3.org/2000/svg"
   xmlns:svg="http://www.w3.org/2000/svg"><sodipodi:namedview
     id="namedview7"
     pagecolor="#ffffff"
     bordercolor="#000000"
     borderopacity="0.25"
     inkscape:showpageshadow="2"
     inkscape:pageopacity="0.0"
     inkscape:pagecheckerboard="0"
     inkscape:deskcolor="#d1d1d1"
     inkscape:document-units="mm"
     showgrid="false"
     inkscape:zoom="0.69664703"
     inkscape:cx="500.25333"
     inkscape:cy="401.9252"
     inkscape:window-width="1920"
     inkscape:window-height="1011"
     inkscape:window-x="0"
     inkscape:window-y="0"
     inkscape:window-maximized="1"
     inkscape:current-layer="g4" /><defs
     id="defs2" /><g
     inkscape:label="Layer 1"
     inkscape:groupmode="layer"
     id="layer1"
     transform="translate(-34.489884,-6.3530183)"><g
       transform="matrix(0.01966498,0,0,-0.01998607,-42.006983,252.38154)"
       fill="#000000"
       stroke="none"
       id="g4"
       style="fill:#000000;fill-opacity:0.96"><path
         id="path1"
         style="fill:#006680;fill-opacity:0.96"
         d="m 6249.9896,12305.988 c -981.999,1 -1809.9877,-1.998 -1839.9877,-5.998 -217.9997,-33 -407.9929,-197.992 -485.9928,-420.992 l -29.0114,-84.006 -2.9957,-4098.9878 -1.9972,-4099.9957 19.9979,-75.0089 c 59.9999,-217.9998 217.9853,-381.0109 435.985,-448.0108 57,-17 181.004,-17.996 3144.0011,-17.996 2908.9972,0 3089.0192,0.996 3150.0192,17.996 172.999,45.9999 315.987,160.0156 396.987,313.0154 79,149.9999 73.002,-118.0072 73.002,3020.9897 0,1943.998 -2.985,2836.002 -10.985,2890.0019 -27,195.9998 -164.001,353.0002 -369.001,419.0002 -50,15.9999 -118.019,17.9945 -690.018,23.9945 l -634.9917,5.9987 -81.9886,27.0197 c -217.9998,73 -418.0135,291.0001 -490.0135,535.9991 -13.9999,48 -16.9936,139.993 -22.9936,645.992 -6,518 -9.0184,596.992 -24.0184,648.992 -39,132 -109.9838,238.009 -251.9837,377.009 -177.9998,172 -300,257 -443.9999,305 -53,18 -129.0157,18.987 -1840.014,19.987 z m 1113.4949,-881.051 c 77.8294,0 141.9058,-19.345 192.2265,-58.021 50.3208,-37.835 87.5819,-91.635 111.7358,-161.42 24.8249,-68.945 37.2365,-150.084 37.2365,-243.411 0,-69.785 -7.0643,-133.258 -21.1541,-190.431 -13.4188,-56.333 -34.2053,-105.096 -62.3849,-146.295 -27.5087,-41.198 -63.0791,-72.747 -106.6903,-94.608 -42.9404,-21.86 -93.5961,-32.785 -151.9681,-32.785 -58.372,0 -109.3553,10.925 -152.9666,32.785 -42.9403,22.702 -78.5107,54.251 -106.6903,94.608 -27.5086,41.199 -48.2951,90.388 -62.3849,147.562 -13.4189,57.173 -20.1293,120.646 -20.1293,190.431 0,93.327 12.084,174.466 36.2379,243.41 24.8249,68.945 62.3874,122.319 112.7081,160.154 50.9917,38.676 115.7234,58.021 194.2237,58.021 z m -2923.6303,-13.859 h 229.463 c 92.5901,0 160.0218,-25.234 202.2912,-75.681 42.9403,-49.606 64.4084,-118.141 64.4084,-205.583 0,-39.517 -4.692,-77.355 -14.0852,-113.508 -9.3932,-35.314 -25.1601,-67.263 -47.3012,-95.85 -21.4701,-27.745 -49.9762,-49.596 -85.5362,-65.571 -35.5599,-15.975 -79.5052,-23.969 -131.8387,-23.969 h -65.4333 v -320.332 h -151.968 z m 541.4666,0 h 165.0546 l 148.946,-370.804 149.9446,370.804 h 164.0561 l -238.5291,-549.884 v -350.61 h -150.9694 v 344.301 z m 648.1306,0 h 542.4388 v -158.912 h -195.2223 v -741.582 h -151.968 v 741.582 h -195.2485 z m 653.1497,0 h 151.968 v -353.144 h 284.8317 v 353.144 h 151.968 v -900.494 h -151.968 v 388.438 h -284.8317 v -388.438 h -151.968 z m 1571.0282,0 h 192.2266 l 311.9772,-674.744 h 3.022 l -2.0234,83.232 c -0.671,27.745 -1.6801,55.084 -3.022,81.99 l -1.9972,83.231 v 426.291 h 136.8579 v -900.494 h -193.2251 l -313.0021,681.027 h -4.0206 c 1.3419,-28.587 2.3511,-57.153 3.0221,-85.74 1.3418,-28.586 2.351,-57.178 3.022,-85.765 1.3419,-28.586 2.351,-57.178 3.022,-85.765 v -423.757 h -135.8594 z m -490.1448,-145.053 c -42.9403,0 -77.8292,-12.178 -104.6669,-36.561 -26.8377,-24.383 -46.615,-59.289 -59.3629,-104.692 -12.7479,-45.402 -19.1307,-99.628 -19.1307,-162.687 0,-63.059 6.3828,-117.285 19.1307,-162.687 12.7479,-45.403 32.5252,-80.309 59.3629,-104.692 26.8377,-24.383 61.3989,-36.561 103.6683,-36.561 43.6113,0 78.5002,12.178 104.6669,36.561 26.8377,24.383 46.2874,59.289 58.3644,104.692 12.7479,45.402 19.1306,99.628 19.1306,162.687 0,95.009 -14.076,169.432 -42.2556,223.243 -28.1796,53.81 -74.4972,80.697 -138.9077,80.697 z m -2771.6623,-11.351 v -267.353 h 50.3232 c 28.8505,0 53.6738,4.61 74.473,13.859 20.7992,9.248 36.9199,23.957 48.326,44.136 11.406,20.179 17.1072,46.24 17.1072,78.189 0,44.562 -9.738,77.364 -29.1953,98.383 -19.4573,21.861 -49.9818,32.786 -91.5802,32.786 z M 8200.005,9884.0097 c 96.9999,20 220.0043,12.9866 330.0042,-17.0134 261.9998,-72.9999 406.9964,-119.9856 427.9964,-139.9856 22,-20 23.0021,-27.9992 17.0021,-79.9991 -3,-32 -9.0092,-65.018 -12.0092,-73.018 -9,-24 -52.9866,-40.9845 -175.9865,-68.9844 -64.9999,-14 -172.0007,-44.0194 -240.0007,-67.0194 -150.9998,-49.9999 -216.9993,-52.9798 -351.9992,-12.9798 -117.9999,35 -162.0236,37.9939 -335.0234,26.9939 -174.9998,-13 -200.9965,-20.0083 -279.9964,-78.0082 -101.9999,-74.9999 -143.9808,-159.9861 -142.9808,-290.986 1,-148.9998 101.9809,-287.0171 253.9808,-344.0171 26,-9.9999 105.0128,-24.9925 176.0127,-32.9925 228.9998,-27 372.9909,-88.003 505.9907,-216.0029 165.9999,-157.9998 247.0171,-344.0098 247.0171,-568.0096 0,-119.9998 -13.0065,-193.9769 -51.0064,-292.9768 -91.9999,-237.9998 -301.0187,-423.0041 -542.0184,-478.0041 -74.9999,-17.9999 -146.9942,-20.0113 -873.9935,-26.0113 l -793.0035,-7.0071 v 217.0113 217.0113 l 783.0177,-2.9993 781.9928,-4.0077 66.0113,31.0016 c 89,43 141.9795,92.9957 180.9794,171.9956 31,61.9999 33.0057,74.0055 33.0057,167.0054 0,87.9999 -2.9879,106.999 -26.9879,156.999 -59,125.9998 -173.0143,206.0002 -323.0142,228.0002 -239.9997,33.9999 -298.9979,48.9874 -389.9978,93.9873 -195.9998,97.9999 -335.0085,263.0043 -401.0085,478.0041 -33.9999,105.9999 -38.9843,294.9965 -10.9844,396.9964 76,279.9998 276.9903,484.009 561.99,571.0089 22,7 144.0037,15.9953 275.0035,20.9953 136.9999,4 266.0064,14.012 310.0064,23.012 z M 6070.0088,8359.9921 v -233.9988 -232.9905 l -122.0106,-4.0077 c -67.9999,-2 -289.0094,-4.0077 -493.0092,-4.0077 h -369.9999 l -2.9958,232.0079 -1.9971,236.843 151.9943,-0.8274 c 83.9999,1 603.7408,4.223 792.7406,5.223 z m -505.0184,-777.988 c 533.9995,3 511.0142,3.9839 508.0142,-5.0161 -2,-4 -2.9958,-110.9982 -2.9958,-236.9981 v -229.9911 l -492.0106,1.9909 -493.0091,2.9993 v 232.0079 232.9905 z m 19.9979,-1002.0062 h 495.0063 l -1.9971,-236.9982 -2.9958,-238.0066 h -495.0063 -495.0063 l -2.9958,225.0009 c -1,122.9999 0,229.9982 1.9972,236.9982 4,10 108.9982,13.0057 500.9978,13.0057 z m 775.0027,0 h 495.0064 495.0063 V 6340.0004 6100.0029 H 6854.9974 6359.991 v 239.9975 z m 1259.997,0 h 495.0064 495.0063 V 6340.0004 6100.0029 H 8114.9944 7619.988 v 239.9975 z m 1270.0091,0 h 499.9992 499.9993 l -1.9972,-236.9982 -2.9957,-238.0066 -497.0035,-2.9993 -498.0021,-1.9909 v 239.9975 z M 5079.9962,5809.9995 h 499.0006 499.9992 l -1.9971,-236.9982 -1.9972,-238.0065 h -495.0063 -495.0063 l -2.9958,238.0065 z m 1279.9948,0 h 495.0064 495.0063 V 5570.002 5330.0045 H 6854.9974 6359.991 v 239.9975 z m 1761.0211,0 h 488.9886 V 5570.002 5330.0045 l -488.9886,1.9909 -490.0134,2.9994 -5.9915,228.0002 c -3,124.9998 -3,232.0065 0,238.0065 4,5 198.0052,8.998 496.0049,8.998 z m 768.985,0 h 499.9992 499.9993 V 5570.002 5330.0045 H 9389.9963 8889.9971 V 5570.002 Z M 5576.9997,5029.9947 h 499.0006 l 2.9957,-239.9974 2.9958,-239.9975 h -496.0049 -495.9787 v 223.9925 c 0,122.9998 -3.0177,230.9974 -6.0177,239.9974 -6,14 42.0096,16.005 493.0092,16.005 z m 782.9913,0 h 495.0064 495.0063 V 4789.9973 4549.9998 H 6854.9974 6359.991 v 239.9975 z m 1259.997,0 h 495.0064 495.0063 v -239.9974 -239.9975 l -492.0106,1.9909 -492.9829,2.9993 -2.9957,238.0066 z m 1270.0091,0 498.0021,-1.9909 497.0035,-2.9993 V 4789.9973 4554.99 l -497.0035,-2.9993 -498.0021,-1.9909 v 239.9975 z" /><path
         d="m 8966,11928 c 208,-211 567,-572 796,-803 229,-231 598,-604 820,-829 l 403,-409 5,414 5,414 231,3 232,2 6,31 c 3,18 6,375 6,795 v 764 H 10028 8586 Z m 2182,-395 -3,-228 -72,-3 -73,-3 v 156 155 h -185 -185 v 75 75 h 260 260 z m -335,-383 c -1,-74 -2,-201 -2,-282 l -1,-148 h -85 -85 v 195 195 h -275 -275 v 83 c 0,46 3,87 7,90 4,4 167,6 362,5 l 356,-3 z"
         id="path4"
         style="fill:#006680;fill-opacity:0.96" /></g></g></svg>
